<?xml version="1.0" standalone="no"?>
<!DOCTYPE svg PUBLIC "-//W3C//DTD SVG 20010904//EN"
 "http://www.w3.org/TR/2001/REC-SVG-20010904/DTD/svg10.dtd">
<svg version="1.0" xmlns="http://www.w3.org/2000/svg"
 width="1048.000000pt" height="1048.000000pt" viewBox="0 0 1048.000000 1048.000000"
 preserveAspectRatio="xMidYMid meet">

<g transform="translate(0.000000,1048.000000) scale(0.100000,-0.100000)"
fill="#000000" stroke="none">
<path d="M1363 10469 c-349 -31 -665 -180 -918 -434 -257 -257 -402 -570 -435
-937 -14 -157 -14 -7561 0 -7718 33 -369 175 -676 435 -935 257 -257 570 -402
937 -435 157 -14 7561 -14 7718 0 369 33 676 175 935 435 257 257 402 570 435
937 14 157 14 7561 0 7718 -33 369 -175 676 -435 935 -257 257 -570 402 -937
435 -138 12 -7597 11 -7735 -1z m4157 -2250 c636 -59 1198 -311 1615 -724 388
-385 653 -899 764 -1485 70 -372 87 -830 46 -1227 -78 -734 -335 -1313 -792
-1784 l-103 -106 371 -464 c204 -255 391 -490 416 -521 l44 -58 -578 0 -579 0
-230 282 c-169 208 -235 283 -250 281 -10 -1 -68 -17 -129 -36 -130 -41 -296
-79 -455 -104 -91 -14 -176 -18 -415 -18 -315 0 -386 6 -613 51 -794 159
-1426 644 -1790 1372 -222 445 -332 960 -332 1557 0 647 130 1216 378 1660
424 760 1131 1223 2014 1319 152 17 465 19 618 5z"/>
<path d="M5105 7129 c-498 -39 -885 -305 -1115 -764 -96 -193 -156 -396 -197
-670 -26 -173 -26 -736 0 -910 71 -478 220 -810 479 -1067 274 -272 677 -408
1096 -369 70 6 139 15 154 19 27 7 21 15 -342 494 -204 268 -370 490 -370 493
0 3 236 5 524 5 l525 0 203 -262 c112 -144 208 -269 215 -277 14 -19 17 -17
109 121 122 183 217 420 267 668 44 216 52 314 51 645 0 342 -14 479 -74 716
-162 651 -587 1071 -1160 1148 -114 15 -254 19 -365 10z"/>
</g>
</svg>
